name Walk7.mot
datacolumns 19
datarows 22
range 3.13700000 3.15800000
endheader

                time	   L_ground_force_vx	   L_ground_force_vy	   L_ground_force_vz	   L_ground_force_px	   L_ground_force_py	   L_ground_force_pz	   R_ground_force_vx	   R_ground_force_vy	   R_ground_force_vz	   R_ground_force_px	   R_ground_force_py	   R_ground_force_pz	   L_ground_torque_x	   L_ground_torque_y	   L_ground_torque_z	   R_ground_torque_x	   R_ground_torque_y	   R_ground_torque_z	
          3.13700000	          0.00000000	          0.00000000	          0.00000000	          0.00000000	          0.00000000	          0.00000000	        -18.88249675	        707.38177968	        -32.37777023	          0.38693558	          0.00000000	          0.06660561	          0.00000000	          0.00000000	          0.00000000	          0.00000000	          1.47734741	          0.00000000	
          3.13800000	          0.00000000	          0.00000000	          0.00000000	          0.00000000	          0.00000000	          0.00000000	        -18.46289241	        705.43076589	        -32.37622562	          0.38742083	          0.00000000	          0.06659628	          0.00000000	          0.00000000	          0.00000000	          0.00000000	          1.42237131	          0.00000000	
          3.13900000	          0.00000000	          0.00000000	          0.00000000	          0.00000000	          0.00000000	          0.00000000	        -18.09232650	        703.50545744	        -32.34784745	          0.38789112	          0.00000000	          0.06668076	          0.00000000	          0.00000000	          0.00000000	          0.00000000	          1.38547935	          0.00000000	
          3.14000000	          0.00000000	          0.00000000	          0.00000000	          0.00000000	          0.00000000	          0.00000000	        -17.77216680	        701.59229942	        -32.29472779	          0.38833621	          0.00000000	          0.06683583	          0.00000000	          0.00000000	          0.00000000	          0.00000000	          1.36062973	          0.00000000	
          3.14100000	          0.00000000	          0.00000000	          0.00000000	          0.00000000	          0.00000000	          0.00000000	        -17.49732790	        699.66896580	        -32.22787905	          0.38876568	          0.00000000	          0.06701647	          0.00000000	          0.00000000	          0.00000000	          0.00000000	          1.33592884	          0.00000000	
          3.14200000	          0.00000000	          0.00000000	          0.00000000	          0.00000000	          0.00000000	          0.00000000	        -17.25285405	        697.70473770	        -32.16329093	          0.38919981	          0.00000000	          0.06717817	          0.00000000	          0.00000000	          0.00000000	          0.00000000	          1.30453840	          0.00000000	
          3.14300000	          0.00000000	          0.00000000	          0.00000000	          0.00000000	          0.00000000	          0.00000000	        -17.02257528	        695.67213343	        -32.11128579	          0.38964972	          0.00000000	          0.06729345	          0.00000000	          0.00000000	          0.00000000	          0.00000000	          1.26748180	          0.00000000	
          3.14400000	          0.00000000	          0.00000000	          0.00000000	          0.00000000	          0.00000000	          0.00000000	        -16.79799984	        693.57156558	        -32.07008873	          0.39011582	          0.00000000	          0.06736102	          0.00000000	          0.00000000	          0.00000000	          0.00000000	          1.22695375	          0.00000000	
          3.14500000	          0.00000000	          0.00000000	          0.00000000	          0.00000000	          0.00000000	          0.00000000	        -16.57488497	        691.42637925	        -32.02921424	          0.39060263	          0.00000000	          0.06739579	          0.00000000	          0.00000000	          0.00000000	          0.00000000	          1.18295833	          0.00000000	
          3.14600000	          0.00000000	          0.00000000	          0.00000000	          0.00000000	          0.00000000	          0.00000000	        -16.34797024	        689.26083970	        -31.97445705	          0.39111074	          0.00000000	          0.06741118	          0.00000000	          0.00000000	          0.00000000	          0.00000000	          1.13637137	          0.00000000	
          3.14700000	          0.00000000	          0.00000000	          0.00000000	          0.00000000	          0.00000000	          0.00000000	        -16.11285578	        687.09810884	        -31.90092417	          0.39162363	          0.00000000	          0.06741167	          0.00000000	          0.00000000	          0.00000000	          0.00000000	          1.09228549	          0.00000000	
          3.14800000	          0.00000000	          0.00000000	          0.00000000	          0.00000000	          0.00000000	          0.00000000	        -15.86984617	        684.96539216	        -31.82220953	          0.39212584	          0.00000000	          0.06739279	          0.00000000	          0.00000000	          0.00000000	          0.00000000	          1.05743313	          0.00000000	
          3.14900000	          0.00000000	          0.00000000	          0.00000000	          0.00000000	          0.00000000	          0.00000000	        -15.62882545	        682.90259133	        -31.75336973	          0.39262798	          0.00000000	          0.06735502	          0.00000000	          0.00000000	          0.00000000	          0.00000000	          1.03208991	          0.00000000	
          3.15000000	          0.00000000	          0.00000000	          0.00000000	          0.00000000	          0.00000000	          0.00000000	        -15.40736713	        680.94798813	        -31.69377053	          0.39316152	          0.00000000	          0.06732047	          0.00000000	          0.00000000	          0.00000000	          0.00000000	          1.00881027	          0.00000000	
          3.15100000	          0.00000000	          0.00000000	          0.00000000	          0.00000000	          0.00000000	          0.00000000	        -15.21410379	        679.08472592	        -31.63699849	          0.39373618	          0.00000000	          0.06731945	          0.00000000	          0.00000000	          0.00000000	          0.00000000	          0.98243149	          0.00000000	
          3.15200000	          0.00000000	          0.00000000	          0.00000000	          0.00000000	          0.00000000	          0.00000000	        -15.03857593	        677.24365947	        -31.58468001	          0.39431135	          0.00000000	          0.06736449	          0.00000000	          0.00000000	          0.00000000	          0.00000000	          0.95531078	          0.00000000	
          3.15300000	          0.00000000	          0.00000000	          0.00000000	          0.00000000	          0.00000000	          0.00000000	        -14.86430071	        675.38795184	        -31.54309607	          0.39483691	          0.00000000	          0.06744599	          0.00000000	          0.00000000	          0.00000000	          0.00000000	          0.92986931	          0.00000000	
          3.15400000	          0.00000000	          0.00000000	          0.00000000	          0.00000000	          0.00000000	          0.00000000	        -14.68335739	        673.54123264	        -31.51311636	          0.39530901	          0.00000000	          0.06754372	          0.00000000	          0.00000000	          0.00000000	          0.00000000	          0.90225650	          0.00000000	
          3.15500000	          0.00000000	          0.00000000	          0.00000000	          0.00000000	          0.00000000	          0.00000000	        -14.49354306	        671.73021726	        -31.48511623	          0.39576049	          0.00000000	          0.06763791	          0.00000000	          0.00000000	          0.00000000	          0.00000000	          0.86622496	          0.00000000	
          3.15600000	          0.00000000	          0.00000000	          0.00000000	          0.00000000	          0.00000000	          0.00000000	        -14.28797329	        669.95858543	        -31.44099928	          0.39622211	          0.00000000	          0.06771167	          0.00000000	          0.00000000	          0.00000000	          0.00000000	          0.81970382	          0.00000000	
          3.15700000	          0.00000000	          0.00000000	          0.00000000	          0.00000000	          0.00000000	          0.00000000	        -14.05214462	        668.22714003	        -31.36712993	          0.39671412	          0.00000000	          0.06775394	          0.00000000	          0.00000000	          0.00000000	          0.00000000	          0.76673975	          0.00000000	
          3.15800000	          0.00000000	          0.00000000	          0.00000000	          0.00000000	          0.00000000	          0.00000000	        -13.77221747	        666.53420288	        -31.27382853	          0.39724710	          0.00000000	          0.06776749	          0.00000000	          0.00000000	          0.00000000	          0.00000000	          0.71666005	          0.00000000	
